<svg id="340886c7-1fdd-4789-af3e-2910c12e6c4a" data-name="d49a3894-fddd-4844-a0a4-a3fd24a1e3f2" xmlns="http://www.w3.org/2000/svg" viewBox="0 0 425.03 27">
  <defs>
    <style>
      .\30 acfd491-98b0-4829-8268-a3f74bd1c02c, .\31 9666216-838f-4265-8ad4-21642b176222, .\38 f7c471d-8a30-421d-ae0e-645562e8d696 {
        fill: none;
        stroke: #000;
        stroke-miterlimit: 10;
      }

      .\38 f7c471d-8a30-421d-ae0e-645562e8d696 {
        stroke-width: 4px;
      }

      .\30 acfd491-98b0-4829-8268-a3f74bd1c02c {
        stroke-width: 6px;
      }
    </style>
  </defs>
  <title>gear_black</title>
  <circle class="8f7c471d-8a30-421d-ae0e-645562e8d696" cx="12.69" cy="13.5" r="6"/>
  <line class="8f7c471d-8a30-421d-ae0e-645562e8d696" x1="12.69" x2="12.69" y2="4.5"/>
  <line class="8f7c471d-8a30-421d-ae0e-645562e8d696" x1="1" y1="6.75" x2="4.9" y2="9"/>
  <line class="8f7c471d-8a30-421d-ae0e-645562e8d696" x1="1" y1="20.25" x2="4.9" y2="18"/>
  <line class="8f7c471d-8a30-421d-ae0e-645562e8d696" x1="12.69" y1="27" x2="12.69" y2="22.5"/>
  <line class="8f7c471d-8a30-421d-ae0e-645562e8d696" x1="24.38" y1="20.25" x2="20.49" y2="18"/>
  <line class="8f7c471d-8a30-421d-ae0e-645562e8d696" x1="24.38" y1="6.75" x2="20.49" y2="9"/>
  <circle class="19666216-838f-4265-8ad4-21642b176222" cx="62.69" cy="13.5" r="4"/>
  <circle class="19666216-838f-4265-8ad4-21642b176222" cx="62.69" cy="13.5" r="8"/>
  <path class="19666216-838f-4265-8ad4-21642b176222" d="M65,6.5" transform="translate(-2.31 -2)"/>
  <path class="19666216-838f-4265-8ad4-21642b176222" d="M65,2" transform="translate(-2.31 -2)"/>
  <polyline class="19666216-838f-4265-8ad4-21642b176222" points="59.69 4.5 60.69 2 64.63 2 65.63 4.5"/>
  <polyline class="19666216-838f-4265-8ad4-21642b176222" points="53.4 11.6 51.73 9.48 53.7 6.07 56.37 6.46"/>
  <polyline class="19666216-838f-4265-8ad4-21642b176222" points="56.4 20.6 53.73 20.98 51.76 17.57 53.43 15.46"/>
  <polyline class="19666216-838f-4265-8ad4-21642b176222" points="65.69 22.5 64.69 25 60.75 25 59.75 22.5"/>
  <polyline class="19666216-838f-4265-8ad4-21642b176222" points="71.99 15.4 73.65 17.52 71.68 20.93 69.02 20.54"/>
  <polyline class="19666216-838f-4265-8ad4-21642b176222" points="68.99 6.4 71.65 6.02 73.62 9.43 71.95 11.54"/>
  <circle class="19666216-838f-4265-8ad4-21642b176222" cx="162.69" cy="13.5" r="4"/>
  <path class="19666216-838f-4265-8ad4-21642b176222" d="M165,6.5" transform="translate(-2.31 -2)"/>
  <path class="19666216-838f-4265-8ad4-21642b176222" d="M165,2" transform="translate(-2.31 -2)"/>
  <path class="19666216-838f-4265-8ad4-21642b176222" d="M166.94,4H163l-1,2.56a9.41,9.41,0,0,0-3.32,1.93L156,8.07l-2,3.41,1.73,2.13a9.51,9.51,0,0,0,0,3.84l-1.71,2.12L156,23l2.7-.43a9.41,9.41,0,0,0,3.34,1.91l1,2.54H167l1-2.56a9.41,9.41,0,0,0,3.32-1.93L174,22.93l2-3.41-1.73-2.12a9.51,9.51,0,0,0,0-3.85l1.71-2.12L174,8l-2.71.43a9.41,9.41,0,0,0-3.32-1.91Z" transform="translate(-2.31 -2)"/>
  <circle class="19666216-838f-4265-8ad4-21642b176222" cx="262.69" cy="13.5" r="4"/>
  <path class="19666216-838f-4265-8ad4-21642b176222" d="M265,6.5" transform="translate(-2.31 -2)"/>
  <path class="19666216-838f-4265-8ad4-21642b176222" d="M265,2" transform="translate(-2.31 -2)"/>
  <path class="19666216-838f-4265-8ad4-21642b176222" d="M266.94,4H263l-1,2.56a9.41,9.41,0,0,0-3.32,1.93L256,8.07l-2,3.41,1.73,2.13a9.51,9.51,0,0,0,0,3.84l-1.71,2.12L256,23l2.7-.43a9.41,9.41,0,0,0,3.34,1.91l1,2.54H267l1-2.56a9.41,9.41,0,0,0,3.32-1.93L274,22.93l2-3.41-1.73-2.12a9.51,9.51,0,0,0,0-3.85l1.71-2.12L274,8l-2.71.43a9.41,9.41,0,0,0-3.32-1.91Z" transform="translate(-2.31 -2)"/>
  <circle class="19666216-838f-4265-8ad4-21642b176222" cx="112.69" cy="13.5" r="5"/>
  <path class="19666216-838f-4265-8ad4-21642b176222" d="M115,6.5" transform="translate(-2.31 -2)"/>
  <path class="19666216-838f-4265-8ad4-21642b176222" d="M115,2" transform="translate(-2.31 -2)"/>
  <polyline class="19666216-838f-4265-8ad4-21642b176222" points="109.69 6.5 110.69 2 114.63 2 115.63 6.5"/>
  <polyline class="19666216-838f-4265-8ad4-21642b176222" points="105.13 12.6 101.73 9.48 103.7 6.07 108.1 7.46"/>
  <polyline class="19666216-838f-4265-8ad4-21642b176222" points="108.13 19.6 103.73 20.98 101.76 17.57 105.16 14.46"/>
  <polyline class="19666216-838f-4265-8ad4-21642b176222" points="115.69 20.5 114.69 25 110.75 25 109.75 20.5"/>
  <polyline class="19666216-838f-4265-8ad4-21642b176222" points="120.25 14.4 123.65 17.52 121.68 20.93 117.28 19.54"/>
  <polyline class="19666216-838f-4265-8ad4-21642b176222" points="117.25 7.4 121.65 6.02 123.62 9.43 120.22 12.54"/>
  <circle class="19666216-838f-4265-8ad4-21642b176222" cx="212.69" cy="13.5" r="4"/>
  <circle class="19666216-838f-4265-8ad4-21642b176222" cx="212.69" cy="13.5" r="8"/>
  <path class="19666216-838f-4265-8ad4-21642b176222" d="M215,6.5" transform="translate(-2.31 -2)"/>
  <path class="19666216-838f-4265-8ad4-21642b176222" d="M215,2" transform="translate(-2.31 -2)"/>
  <polyline class="19666216-838f-4265-8ad4-21642b176222" points="209.69 4.5 210.69 2 214.63 2 215.63 4.5"/>
  <polyline class="19666216-838f-4265-8ad4-21642b176222" points="203.4 11.6 201.73 9.48 203.7 6.07 206.37 6.46"/>
  <polyline class="19666216-838f-4265-8ad4-21642b176222" points="206.4 20.6 203.73 20.98 201.76 17.57 203.43 15.46"/>
  <polyline class="19666216-838f-4265-8ad4-21642b176222" points="215.69 22.5 214.69 25 210.75 25 209.75 22.5"/>
  <polyline class="19666216-838f-4265-8ad4-21642b176222" points="221.99 15.4 223.65 17.52 221.68 20.93 219.02 20.54"/>
  <polyline class="19666216-838f-4265-8ad4-21642b176222" points="218.99 6.4 221.65 6.02 223.62 9.43 221.95 11.54"/>
  <circle class="8f7c471d-8a30-421d-ae0e-645562e8d696" cx="412.69" cy="13.5" r="7"/>
  <circle class="19666216-838f-4265-8ad4-21642b176222" cx="362.69" cy="13.5" r="4"/>
  <path class="19666216-838f-4265-8ad4-21642b176222" d="M362,8.08a8,8,0,0,0-2,1.15" transform="translate(-2.31 -2)"/>
  <path class="19666216-838f-4265-8ad4-21642b176222" d="M357.08,14.39a8,8,0,0,0,0,2.29" transform="translate(-2.31 -2)"/>
  <path class="19666216-838f-4265-8ad4-21642b176222" d="M360.08,21.81a8,8,0,0,0,2,1.13" transform="translate(-2.31 -2)"/>
  <path class="19666216-838f-4265-8ad4-21642b176222" d="M368,22.92a8,8,0,0,0,2-1.15" transform="translate(-2.31 -2)"/>
  <path class="19666216-838f-4265-8ad4-21642b176222" d="M372.92,16.61a8,8,0,0,0,0-2.29" transform="translate(-2.31 -2)"/>
  <path class="19666216-838f-4265-8ad4-21642b176222" d="M369.92,9.19a8,8,0,0,0-2-1.13" transform="translate(-2.31 -2)"/>
  <path class="19666216-838f-4265-8ad4-21642b176222" d="M365,6.5" transform="translate(-2.31 -2)"/>
  <path class="19666216-838f-4265-8ad4-21642b176222" d="M365,2" transform="translate(-2.31 -2)"/>
  <polyline class="19666216-838f-4265-8ad4-21642b176222" points="359.69 4.5 360.69 2 364.63 2 365.63 4.5"/>
  <polyline class="19666216-838f-4265-8ad4-21642b176222" points="353.4 11.6 351.73 9.48 353.7 6.07 356.37 6.46"/>
  <polyline class="19666216-838f-4265-8ad4-21642b176222" points="356.4 20.6 353.73 20.98 351.76 17.57 353.43 15.46"/>
  <polyline class="19666216-838f-4265-8ad4-21642b176222" points="365.69 22.5 364.69 25 360.75 25 359.75 22.5"/>
  <polyline class="19666216-838f-4265-8ad4-21642b176222" points="371.99 15.4 373.65 17.52 371.68 20.93 369.02 20.54"/>
  <polyline class="19666216-838f-4265-8ad4-21642b176222" points="368.99 6.4 371.65 6.02 373.62 9.43 371.95 11.54"/>
  <circle class="19666216-838f-4265-8ad4-21642b176222" cx="312.69" cy="13.5" r="4"/>
  <path class="19666216-838f-4265-8ad4-21642b176222" d="M318,6.47" transform="translate(-2.31 -2)"/>
  <path class="19666216-838f-4265-8ad4-21642b176222" d="M315,6.5" transform="translate(-2.31 -2)"/>
  <path class="19666216-838f-4265-8ad4-21642b176222" d="M315,2" transform="translate(-2.31 -2)"/>
  <path class="19666216-838f-4265-8ad4-21642b176222" d="M308.65,8.43" transform="translate(-2.31 -2)"/>
  <path class="19666216-838f-4265-8ad4-21642b176222" d="M305.7,17.46" transform="translate(-2.31 -2)"/>
  <path class="19666216-838f-4265-8ad4-21642b176222" d="M312,24.53" transform="translate(-2.31 -2)"/>
  <path class="19666216-838f-4265-8ad4-21642b176222" d="M321.35,22.57" transform="translate(-2.31 -2)"/>
  <path class="19666216-838f-4265-8ad4-21642b176222" d="M324.3,13.54" transform="translate(-2.31 -2)"/>
  <path class="19666216-838f-4265-8ad4-21642b176222" d="M313.06,28H317l1-3.49a9.49,9.49,0,0,0,3.34-1.95l3.51,0.86,2-3.41-2.52-2.61a9.49,9.49,0,0,0,0-3.87l2.5-2.61-2-3.41-3.52.87a9.49,9.49,0,0,0-3.36-1.92l-1-3.47H313l-1,3.49a9.49,9.49,0,0,0-3.34,1.95l-3.51-.86-2,3.41,2.52,2.61a9.49,9.49,0,0,0,0,3.87l-2.5,2.61,2,3.41,3.52-.87a9.49,9.49,0,0,0,3.36,1.92Z" transform="translate(-2.31 -2)"/>
  <line class="0acfd491-98b0-4829-8268-a3f74bd1c02c" x1="412.66" y1="1" x2="412.66" y2="5.5"/>
  <line class="0acfd491-98b0-4829-8268-a3f74bd1c02c" x1="401.85" y1="7.28" x2="405.75" y2="9.53"/>
  <line class="0acfd491-98b0-4829-8268-a3f74bd1c02c" x1="401.88" y1="19.78" x2="405.78" y2="17.53"/>
  <line class="0acfd491-98b0-4829-8268-a3f74bd1c02c" x1="412.72" y1="26" x2="412.72" y2="21.5"/>
  <line class="0acfd491-98b0-4829-8268-a3f74bd1c02c" x1="423.53" y1="19.72" x2="419.64" y2="17.47"/>
  <line class="0acfd491-98b0-4829-8268-a3f74bd1c02c" x1="423.5" y1="7.22" x2="419.6" y2="9.47"/>
</svg>
